<svg width="115" height="20" viewBox="0 0 115 20" fill="none" xmlns="http://www.w3.org/2000/svg">
<path d="M10.0342 0.535361C10.3062 -0.178454 11.2616 -0.178453 11.5336 0.535362L13.6328 6.04478C13.7485 6.34845 14.018 6.55556 14.3268 6.57811L19.9294 6.98718C20.6553 7.04018 20.9506 8.00129 20.3928 8.49545L16.0875 12.3095C15.8502 12.5198 15.7472 12.8549 15.8224 13.1725L17.1859 18.9347C17.3625 19.6813 16.5895 20.2753 15.9728 19.8669L11.2129 16.7147C10.9505 16.541 10.6174 16.541 10.355 16.7147L5.59503 19.8669C4.97832 20.2753 4.20534 19.6813 4.382 18.9347L5.74548 13.1725C5.82063 12.8549 5.71769 12.5198 5.48038 12.3095L1.17509 8.49545C0.617281 8.00129 0.91253 7.04018 1.63842 6.98718L7.24106 6.57811C7.54987 6.55556 7.81939 6.34845 7.93509 6.04478L10.0342 0.535361Z" fill="#E8BF8D"/>
<path d="M33.4744 0.535361C33.7463 -0.178454 34.7018 -0.178453 34.9737 0.535362L37.0729 6.04478C37.1886 6.34845 37.4581 6.55556 37.7669 6.57811L43.3696 6.98718C44.0954 7.04018 44.3907 8.00129 43.8329 8.49545L39.5276 12.3095C39.2903 12.5198 39.1874 12.8549 39.2625 13.1725L40.626 18.9347C40.8026 19.6813 40.0297 20.2753 39.4129 19.8669L34.653 16.7147C34.3906 16.541 34.0575 16.541 33.7951 16.7147L29.0352 19.8669C28.4184 20.2753 27.6455 19.6813 27.8221 18.9347L29.1856 13.1725C29.2608 12.8549 29.1578 12.5198 28.9205 12.3095L24.6152 8.49545C24.0574 8.00129 24.3527 7.04018 25.0786 6.98718L30.6812 6.57811C30.99 6.55556 31.2595 6.34845 31.3752 6.04478L33.4744 0.535361Z" fill="#E8BF8D"/>
<path d="M56.9145 0.535361C57.1865 -0.178454 58.1419 -0.178453 58.4139 0.535362L60.513 6.04478C60.6287 6.34845 60.8982 6.55556 61.2071 6.57811L66.8097 6.98718C67.5356 7.04018 67.8308 8.00129 67.273 8.49545L62.9677 12.3095C62.7304 12.5198 62.6275 12.8549 62.7026 13.1725L64.0661 18.9347C64.2428 19.6813 63.4698 20.2753 62.8531 19.8669L58.0931 16.7147C57.8308 16.541 57.4976 16.541 57.2353 16.7147L52.4753 19.8669C51.8586 20.2753 51.0856 19.6813 51.2623 18.9347L52.6257 13.1725C52.7009 12.8549 52.5979 12.5198 52.3606 12.3095L48.0553 8.49545C47.4975 8.00129 47.7928 7.04018 48.5187 6.98718L54.1213 6.57811C54.4301 6.55556 54.6996 6.34845 54.8153 6.04478L56.9145 0.535361Z" fill="#E8BF8D"/>
<path d="M80.3546 0.535361C80.6266 -0.178454 81.582 -0.178453 81.854 0.535362L83.9531 6.04478C84.0688 6.34845 84.3384 6.55556 84.6472 6.57811L90.2498 6.98718C90.9757 7.04018 91.271 8.00129 90.7132 8.49545L86.4079 12.3095C86.1706 12.5198 86.0676 12.8549 86.1428 13.1725L87.5062 18.9347C87.6829 19.6813 86.9099 20.2753 86.2932 19.8669L81.5332 16.7147C81.2709 16.541 80.9377 16.541 80.6754 16.7147L75.9154 19.8669C75.2987 20.2753 74.5257 19.6813 74.7024 18.9347L76.0659 13.1725C76.141 12.8549 76.0381 12.5198 75.8008 12.3095L71.4955 8.49545C70.9377 8.00129 71.2329 7.04018 71.9588 6.98718L77.5614 6.57811C77.8703 6.55556 78.1398 6.34845 78.2555 6.04478L80.3546 0.535361Z" fill="#E8BF8D"/>
<path d="M103.795 0.535361C104.067 -0.178454 105.022 -0.178453 105.294 0.535362L107.393 6.04478C107.509 6.34845 107.778 6.55556 108.087 6.57811L113.69 6.98718C114.416 7.04018 114.711 8.00129 114.153 8.49545L109.848 12.3095C109.611 12.5198 109.508 12.8549 109.583 13.1725L110.946 18.9347C111.123 19.6813 110.35 20.2753 109.733 19.8669L104.973 16.7147C104.711 16.541 104.378 16.541 104.116 16.7147L99.3555 19.8669C98.7388 20.2753 97.9659 19.6813 98.1425 18.9347L99.506 13.1725C99.5811 12.8549 99.4782 12.5198 99.2409 12.3095L94.9356 8.49545C94.3778 8.00129 94.673 7.04018 95.3989 6.98718L101.002 6.57811C101.31 6.55556 101.58 6.34845 101.696 6.04478L103.795 0.535361Z" fill="#E8BF8D"/>
</svg>
