<svg width="173" height="82" viewBox="0 0 173 82" fill="none" xmlns="http://www.w3.org/2000/svg">
<path d="M54.82 46.69H61.118V73.104C61.118 74.232 61.306 74.9997 61.682 75.407C62.058 75.783 62.575 75.971 63.233 75.971C63.7343 75.971 64.2513 75.9083 64.784 75.783C65.3167 75.6577 65.7867 75.501 66.194 75.313L67.04 80.107C66.194 80.5143 65.207 80.8277 64.079 81.047C62.951 81.2663 61.9327 81.376 61.024 81.376C59.05 81.376 57.5147 80.859 56.418 79.825C55.3527 78.7597 54.82 77.2557 54.82 75.313V46.69ZM69.784 81V56.372H76.082V81H69.784ZM69.784 52.941V46.69H76.082V52.941H69.784ZM93.1375 81.47C91.1322 81.47 89.3305 81.141 87.7325 80.483C86.1345 79.7937 84.7715 78.8537 83.6435 77.663C82.5468 76.4723 81.7008 75.1093 81.1055 73.574C80.5102 72.0387 80.2125 70.425 80.2125 68.733C80.2125 67.0097 80.5102 65.3803 81.1055 63.845C81.7008 62.3097 82.5468 60.9467 83.6435 59.756C84.7715 58.5653 86.1345 57.641 87.7325 56.983C89.3305 56.2937 91.1322 55.949 93.1375 55.949C95.1428 55.949 96.9288 56.2937 98.4955 56.983C100.093 57.641 101.456 58.5653 102.584 59.756C103.712 60.9467 104.558 62.3097 105.122 63.845C105.718 65.3803 106.015 67.0097 106.015 68.733C106.015 70.425 105.718 72.0387 105.122 73.574C104.558 75.1093 103.712 76.4723 102.584 77.663C101.488 78.8537 100.14 79.7937 98.5425 80.483C96.9445 81.141 95.1428 81.47 93.1375 81.47ZM86.6985 68.733C86.6985 70.1743 86.9805 71.459 87.5445 72.587C88.1085 73.6837 88.8762 74.5453 89.8475 75.172C90.8188 75.7987 91.9155 76.112 93.1375 76.112C94.3282 76.112 95.4092 75.7987 96.3805 75.172C97.3518 74.514 98.1195 73.6367 98.6835 72.54C99.2788 71.412 99.5765 70.1273 99.5765 68.686C99.5765 67.276 99.2788 66.007 98.6835 64.879C98.1195 63.751 97.3518 62.8737 96.3805 62.247C95.4092 61.6203 94.3282 61.307 93.1375 61.307C91.9155 61.307 90.8188 61.636 89.8475 62.294C88.8762 62.9207 88.1085 63.798 87.5445 64.926C86.9805 66.0227 86.6985 67.2917 86.6985 68.733ZM133.155 81H126.857V67.182C126.857 65.208 126.513 63.7667 125.823 62.858C125.134 61.9493 124.178 61.495 122.956 61.495C122.11 61.495 121.249 61.7143 120.371 62.153C119.525 62.5917 118.758 63.2027 118.068 63.986C117.379 64.738 116.878 65.6153 116.564 66.618V81H110.266V56.372H115.953V60.931C116.58 59.8657 117.379 58.9727 118.35 58.252C119.322 57.5 120.434 56.936 121.687 56.56C122.972 56.1527 124.319 55.949 125.729 55.949C127.265 55.949 128.518 56.231 129.489 56.795C130.492 57.3277 131.244 58.064 131.745 59.004C132.278 59.9127 132.638 60.9467 132.826 62.106C133.046 63.2653 133.155 64.4403 133.155 65.631V81Z" fill="white"/>
<path d="M23.359 19.372C23.1397 19.1527 22.7323 18.855 22.137 18.479C21.573 18.103 20.868 17.7427 20.022 17.398C19.2073 17.0533 18.3143 16.7557 17.343 16.505C16.3717 16.223 15.3847 16.082 14.382 16.082C12.6273 16.082 11.2957 16.411 10.387 17.069C9.50967 17.727 9.071 18.6513 9.071 19.842C9.071 20.7507 9.353 21.4713 9.917 22.004C10.481 22.5367 11.327 22.991 12.455 23.367C13.583 23.743 14.993 24.1503 16.685 24.589C18.8783 25.1217 20.774 25.7797 22.372 26.563C24.0013 27.315 25.239 28.3177 26.085 29.571C26.9623 30.793 27.401 32.4223 27.401 34.459C27.401 36.245 27.072 37.7803 26.414 39.065C25.756 40.3183 24.8473 41.3367 23.688 42.12C22.5287 42.9033 21.2127 43.483 19.74 43.859C18.2673 44.2037 16.7007 44.376 15.04 44.376C13.3793 44.376 11.7187 44.2037 10.058 43.859C8.39733 43.5143 6.79933 43.0287 5.264 42.402C3.72867 41.744 2.31867 40.9607 1.034 40.052L3.901 34.459C4.183 34.741 4.68433 35.117 5.405 35.587C6.12567 36.0257 7.003 36.48 8.037 36.95C9.071 37.3887 10.199 37.7647 11.421 38.078C12.643 38.3913 13.8807 38.548 15.134 38.548C16.8887 38.548 18.2203 38.2503 19.129 37.655C20.0377 37.0597 20.492 36.2137 20.492 35.117C20.492 34.1143 20.1317 33.331 19.411 32.767C18.6903 32.203 17.6877 31.7173 16.403 31.31C15.1183 30.8713 13.5987 30.4013 11.844 29.9C9.74467 29.3047 7.99 28.6467 6.58 27.926C5.17 27.174 4.12033 26.234 3.431 25.106C2.74167 23.978 2.397 22.568 2.397 20.876C2.397 18.5887 2.92967 16.6773 3.995 15.142C5.09167 13.5753 6.56433 12.4003 8.413 11.617C10.2617 10.8023 12.314 10.395 14.57 10.395C16.1367 10.395 17.6093 10.5673 18.988 10.912C20.398 11.2567 21.714 11.711 22.936 12.275C24.158 12.839 25.2547 13.45 26.226 14.108L23.359 19.372ZM69.8115 44H63.5135V30.182C63.5135 28.2393 63.1689 26.8137 62.4795 25.905C61.8215 24.965 60.8972 24.495 59.7065 24.495C58.4845 24.495 57.3095 24.9807 56.1815 25.952C55.0849 26.892 54.3015 28.1297 53.8315 29.665V44H47.5335V30.182C47.5335 28.208 47.1889 26.7667 46.4995 25.858C45.8415 24.9493 44.9172 24.495 43.7265 24.495C42.5045 24.495 41.3295 24.965 40.2015 25.905C39.1049 26.845 38.3215 28.0827 37.8515 29.618V44H31.5535V19.372H37.2405V23.931C38.1805 22.333 39.4339 21.111 41.0005 20.265C42.5672 19.3877 44.3689 18.949 46.4055 18.949C48.4422 18.949 50.0245 19.4503 51.1525 20.453C52.3119 21.4557 53.0482 22.6933 53.3615 24.166C54.3642 22.474 55.6332 21.1893 57.1685 20.312C58.7352 19.4033 60.4899 18.949 62.4325 18.949C63.9679 18.949 65.2055 19.231 66.1455 19.795C67.1169 20.3277 67.8689 21.064 68.4015 22.004C68.9342 22.9127 69.2945 23.9467 69.4825 25.106C69.7019 26.2653 69.8115 27.4403 69.8115 28.631V44ZM73.6027 36.715C73.6027 35.117 74.0414 33.7227 74.9187 32.532C75.8274 31.31 77.0807 30.37 78.6787 29.712C80.2767 29.054 82.1097 28.725 84.1777 28.725C85.2117 28.725 86.2614 28.8033 87.3267 28.96C88.3921 29.1167 89.3164 29.3673 90.0997 29.712V28.396C90.0997 26.8293 89.6297 25.623 88.6897 24.777C87.7811 23.931 86.4181 23.508 84.6007 23.508C83.2534 23.508 81.9687 23.743 80.7467 24.213C79.5247 24.683 78.2401 25.3723 76.8927 26.281L74.8717 22.145C76.5011 21.0797 78.1617 20.2807 79.8537 19.748C81.5771 19.2153 83.3787 18.949 85.2587 18.949C88.7681 18.949 91.4941 19.8263 93.4367 21.581C95.4107 23.3357 96.3977 25.8423 96.3977 29.101V36.95C96.3977 37.608 96.5074 38.078 96.7267 38.36C96.9774 38.642 97.3691 38.8143 97.9017 38.877V44C97.3377 44.094 96.8207 44.1723 96.3507 44.235C95.9121 44.2977 95.5361 44.329 95.2227 44.329C93.9694 44.329 93.0137 44.047 92.3557 43.483C91.7291 42.919 91.3374 42.2297 91.1807 41.415L91.0397 40.146C89.9744 41.5247 88.6427 42.59 87.0447 43.342C85.4467 44.094 83.8174 44.47 82.1567 44.47C80.5274 44.47 79.0547 44.141 77.7387 43.483C76.4541 42.7937 75.4357 41.8693 74.6837 40.71C73.9631 39.5193 73.6027 38.1877 73.6027 36.715ZM88.9247 37.984C89.2694 37.608 89.5514 37.232 89.7707 36.856C89.9901 36.48 90.0997 36.1353 90.0997 35.822V33.331C89.3477 33.0177 88.5331 32.7827 87.6557 32.626C86.7784 32.438 85.9481 32.344 85.1647 32.344C83.5354 32.344 82.1881 32.7043 81.1227 33.425C80.0887 34.1143 79.5717 35.0387 79.5717 36.198C79.5717 36.8247 79.7441 37.42 80.0887 37.984C80.4334 38.548 80.9347 39.0023 81.5927 39.347C82.2507 39.6917 83.0341 39.864 83.9427 39.864C84.8827 39.864 85.8071 39.6917 86.7157 39.347C87.6244 38.971 88.3607 38.5167 88.9247 37.984ZM116.947 24.824C115.036 24.824 113.328 25.2 111.824 25.952C110.32 26.6727 109.239 27.7223 108.581 29.101V44H102.283V19.372H108.064V24.636C108.941 22.944 110.054 21.6123 111.401 20.641C112.748 19.6697 114.174 19.137 115.678 19.043C116.023 19.043 116.289 19.043 116.477 19.043C116.665 19.043 116.822 19.0587 116.947 19.09V24.824ZM135.217 42.731C134.684 42.9503 134.042 43.201 133.29 43.483C132.538 43.765 131.723 43.9843 130.846 44.141C130 44.329 129.138 44.423 128.261 44.423C127.101 44.423 126.036 44.2193 125.065 43.812C124.093 43.4047 123.31 42.7623 122.715 41.885C122.151 40.9763 121.869 39.8013 121.869 38.36V24.213H118.626V19.372H121.869V11.382H128.167V19.372H133.337V24.213H128.167V36.245C128.198 37.091 128.433 37.702 128.872 38.078C129.31 38.454 129.859 38.642 130.517 38.642C131.175 38.642 131.817 38.5323 132.444 38.313C133.07 38.0937 133.572 37.9057 133.948 37.749L135.217 42.731Z" fill="white"/>
<path fill-rule="evenodd" clip-rule="evenodd" d="M138 81H139.351L139.741 80.8839C140.398 80.7056 141.048 80.5141 141.69 80.3102C157.754 75.2054 168.769 62.3717 172.658 55.9447C172.891 55.5606 173 55.1313 173 54.6985C173 54.5536 172.987 54.4082 172.962 54.2647C171.797 47.7613 170.032 42.0509 167.931 37.086C168.821 35.1925 169.631 32.9066 170.073 30.5561C170.535 28.0989 170.602 25.5246 169.894 23.2451C169.179 20.9416 167.676 18.964 165.07 17.7468C162.543 16.5669 159.032 16.1253 154.284 16.7021C151.783 14.3094 149.439 12.6005 147.536 11.5325C147.313 11.4075 147.097 11.2913 146.886 11.1838L146.497 11H138V30.6158L138.162 30.4653C139.009 29.6812 139.782 28.9691 140.487 28.3239C141.726 27.191 142.886 26.7128 143.962 26.6581C145.044 26.603 146.129 26.9716 147.222 27.696C149.432 29.162 151.51 31.9774 153.348 35.0495C154.952 37.7322 155.16 41.0798 154.359 44.1938C153.745 46.5784 152.913 49.5599 152.018 52.5703C151.617 52.1384 151.198 51.5961 150.778 50.976C150.105 49.9825 149.458 48.8306 148.914 47.7081C148.369 46.5838 147.936 45.5068 147.683 44.665C147.556 44.2417 147.481 43.8993 147.455 43.6506C147.442 43.5279 147.443 43.4469 147.448 43.4003C148.272 42.2664 149.37 41.1883 150.322 40.2531C150.713 39.8693 151.08 39.5096 151.393 39.18C151.652 38.9062 151.888 38.6383 152.053 38.3956C152.135 38.2746 152.216 38.1351 152.27 37.9854C152.321 37.8416 152.372 37.6192 152.297 37.3756C152.214 37.1036 152.017 36.9343 151.821 36.845C151.645 36.7641 151.455 36.7399 151.293 36.7341C150.966 36.7225 150.541 36.7822 150.03 36.8912C147.88 37.3496 145.19 38.4862 143.407 40.555C142.773 41.2903 142.779 42.0719 142.928 42.6588C142.999 42.9387 143.103 43.1822 143.174 43.3467L143.18 43.3591C143.216 43.442 143.237 43.4923 143.252 43.5322L143.253 43.5345C143.263 43.6241 143.287 43.6926 143.295 43.7162L143.296 43.7176C143.312 43.7647 143.332 43.8098 143.349 43.8474C143.384 43.9235 143.431 44.0141 143.484 44.1118C143.561 44.2559 143.665 44.4424 143.789 44.6646L143.931 44.9197C144.309 45.6003 144.845 46.5793 145.484 47.8593C146.744 50.3845 148.406 54.0873 150.025 58.9711C149.366 60.9771 148.739 62.767 148.203 64.1254C146.875 63.945 145.417 63.6759 144.067 63.3183C142.533 62.912 141.196 62.4063 140.336 61.8226C139.906 61.5312 139.644 61.2524 139.515 61.0033C139.4 60.7798 139.378 60.5593 139.476 60.2946C139.585 60.0018 139.858 59.6176 140.424 59.1532C140.985 58.6929 141.795 58.1852 142.915 57.6344C143.49 57.3512 143.898 56.7559 143.898 56.0774C143.898 54.8782 142.698 54.0528 141.584 54.485L138 55.8742V65.4368C140.854 67.3276 143.626 68.1175 145.459 68.3669C143.653 70.0667 141.223 71.3008 138 71.9132V81ZM164.516 25.1403C164.729 26.0885 164.67 27.4456 164.088 29.3648C162.654 26.8906 161.152 24.674 159.64 22.7049C159.822 22.6861 160.02 22.6706 160.23 22.662C161.078 22.6272 162.049 22.7069 162.856 23.0696C163.63 23.4176 164.266 24.028 164.516 25.1403Z" fill="white"/>
</svg>
