<svg width="28" height="33" viewBox="0 0 28 33" fill="none" xmlns="http://www.w3.org/2000/svg">
<path d="M0.774414 7C0.774414 5.89543 1.66984 5 2.77441 5H25.0751C26.1797 5 27.0751 5.89543 27.0751 7C27.0751 7.55228 26.6274 8 26.0751 8H1.77441C1.22213 8 0.774414 7.55228 0.774414 7Z" fill="#3E5053"/>
<path d="M10.5439 3V5.5C10.5439 6.05228 10.9917 6.5 11.5439 6.5H17.0584C17.6107 6.5 18.0584 6.05228 18.0584 5.5V3C18.0584 2.44772 17.6107 2 17.0584 2H11.5439C10.9917 2 10.5439 2.44772 10.5439 3Z" stroke="#3E5053" stroke-width="3" stroke-linecap="round"/>
<path d="M3.83081 31.1061L1.64434 10.6061C1.58131 10.0152 2.04444 9.5 2.6387 9.5H25.2118C25.8061 9.5 26.2692 10.0152 26.2062 10.6061L24.0197 31.1061C23.9655 31.6144 23.5366 32 23.0254 32H4.82517C4.31394 32 3.88503 31.6144 3.83081 31.1061Z" fill="#3E5053" stroke="#3E5053"/>
<path d="M7.45323 29L5.2832 12.5H7.68003L9.85005 29H7.45323Z" fill="white"/>
<path d="M21.148 29L23.318 12.5H20.9211L18.7511 29H21.148Z" fill="white"/>
<path d="M15.4889 29V12.5H13.1122V29H15.4889Z" fill="white"/>
</svg>
