<svg width="24" height="27" viewBox="0 0 24 27" fill="none" xmlns="http://www.w3.org/2000/svg">
<path d="M7.68 11H6.72C3.00865 11 0 13.5072 0 16.6V21.4C0 24.4928 3.00865 27 6.72 27H17.28C20.9914 27 24 24.4928 24 21.4V16.6C24 13.5072 20.9914 11 17.28 11H16.32V14.2H17.28C18.8706 14.2 20.16 15.2745 20.16 16.6V21.4C20.16 22.7255 18.8706 23.8 17.28 23.8H6.72C5.12942 23.8 3.84 22.7255 3.84 21.4V16.6C3.84 15.2745 5.12942 14.2 6.72 14.2H7.68V11Z" fill="#77A0A4"/>
<path d="M12 21L12 3M12 3L4 7.38095M12 3L20 7.38095" stroke="#77A0A4" stroke-width="4" stroke-linecap="round"/>
</svg>
