<svg width="197" height="33" viewBox="0 0 197 33" fill="none" xmlns="http://www.w3.org/2000/svg">
<path d="M15.2504 0.883346C15.7037 -0.294449 17.2963 -0.294448 17.7496 0.883347L21.2484 9.97388C21.4412 10.4749 21.8905 10.8167 22.4052 10.8539L31.7436 11.5289C32.9535 11.6163 33.4456 13.2021 32.5158 14.0175L25.3399 20.3107C24.9443 20.6576 24.7727 21.2105 24.898 21.7346L27.1706 31.2423C27.4651 32.4741 26.1767 33.4542 25.1488 32.7804L17.2149 27.5793C16.7776 27.2926 16.2224 27.2926 15.7851 27.5793L7.85124 32.7804C6.82331 33.4542 5.53494 32.4741 5.82938 31.2423L8.102 21.7346C8.22727 21.2105 8.05568 20.6576 7.66015 20.3107L0.484156 14.0175C-0.445585 13.2021 0.0465308 11.6163 1.25644 11.5289L10.5948 10.8539C11.1095 10.8167 11.5588 10.4749 11.7516 9.97388L15.2504 0.883346Z" fill="#E8BF8D"/>
<path d="M56.2504 0.883346C56.7037 -0.294449 58.2963 -0.294448 58.7496 0.883347L62.2484 9.97388C62.4412 10.4749 62.8905 10.8167 63.4052 10.8539L72.7436 11.5289C73.9535 11.6163 74.4456 13.2021 73.5158 14.0175L66.3399 20.3107C65.9443 20.6576 65.7727 21.2105 65.898 21.7346L68.1706 31.2423C68.4651 32.4741 67.1767 33.4542 66.1488 32.7804L58.2149 27.5793C57.7776 27.2926 57.2224 27.2926 56.7851 27.5793L48.8512 32.7804C47.8233 33.4542 46.5349 32.4741 46.8294 31.2423L49.102 21.7346C49.2273 21.2105 49.0557 20.6576 48.6601 20.3107L41.4842 14.0175C40.5544 13.2021 41.0465 11.6163 42.2564 11.5289L51.5948 10.8539C52.1095 10.8167 52.5588 10.4749 52.7516 9.97388L56.2504 0.883346Z" fill="#E8BF8D"/>
<path d="M97.2504 0.883346C97.7037 -0.294449 99.2963 -0.294448 99.7496 0.883347L103.248 9.97388C103.441 10.4749 103.89 10.8167 104.405 10.8539L113.744 11.5289C114.953 11.6163 115.446 13.2021 114.516 14.0175L107.34 20.3107C106.944 20.6576 106.773 21.2105 106.898 21.7346L109.171 31.2423C109.465 32.4741 108.177 33.4542 107.149 32.7804L99.2149 27.5793C98.7776 27.2926 98.2224 27.2926 97.7851 27.5793L89.8512 32.7804C88.8233 33.4542 87.5349 32.4741 87.8294 31.2423L90.102 21.7346C90.2273 21.2105 90.0557 20.6576 89.6601 20.3107L82.4842 14.0175C81.5544 13.2021 82.0465 11.6163 83.2564 11.5289L92.5948 10.8539C93.1095 10.8167 93.5588 10.4749 93.7516 9.97388L97.2504 0.883346Z" fill="#E8BF8D"/>
<path d="M179.25 0.883346C179.704 -0.294449 181.296 -0.294448 181.75 0.883347L185.248 9.97388C185.441 10.4749 185.89 10.8167 186.405 10.8539L195.744 11.5289C196.953 11.6163 197.446 13.2021 196.516 14.0175L189.34 20.3107C188.944 20.6576 188.773 21.2105 188.898 21.7346L191.171 31.2423C191.465 32.4741 190.177 33.4542 189.149 32.7804L181.215 27.5793C180.778 27.2926 180.222 27.2926 179.785 27.5793L171.851 32.7804C170.823 33.4542 169.535 32.4741 169.829 31.2423L172.102 21.7346C172.227 21.2105 172.056 20.6576 171.66 20.3107L164.484 14.0175C163.554 13.2021 164.047 11.6163 165.256 11.5289L174.595 10.8539C175.11 10.8167 175.559 10.4749 175.752 9.97388L179.25 0.883346Z" fill="#E8BF8D"/>
<path d="M138.25 0.883346C138.704 -0.294449 140.296 -0.294448 140.75 0.883347L144.248 9.97388C144.441 10.4749 144.89 10.8167 145.405 10.8539L154.744 11.5289C155.953 11.6163 156.446 13.2021 155.516 14.0175L148.34 20.3107C147.944 20.6576 147.773 21.2105 147.898 21.7346L150.171 31.2423C150.465 32.4741 149.177 33.4542 148.149 32.7804L140.215 27.5793C139.778 27.2926 139.222 27.2926 138.785 27.5793L130.851 32.7804C129.823 33.4542 128.535 32.4741 128.829 31.2423L131.102 21.7346C131.227 21.2105 131.056 20.6576 130.66 20.3107L123.484 14.0175C122.554 13.2021 123.047 11.6163 124.256 11.5289L133.595 10.8539C134.11 10.8167 134.559 10.4749 134.752 9.97388L138.25 0.883346Z" fill="#E8BF8D"/>
</svg>
