<svg width="41" height="41" viewBox="0 0 41 41" fill="none" xmlns="http://www.w3.org/2000/svg">
<path fill-rule="evenodd" clip-rule="evenodd" d="M2.19066 0L7.95875 5.57725C8.07812 5.5609 8.20011 5.55245 8.32415 5.55245H38.4165C40.1582 5.55245 41.4002 7.18588 40.8807 8.79333L36.3627 22.7727C36.0259 23.8148 35.0277 24.5244 33.8985 24.5244H8.84049V29.517H33.1087V32.5126H8.32415C6.8983 32.5126 5.74243 31.3949 5.74243 30.0162V8.04875C5.74243 7.92882 5.75117 7.81086 5.76809 7.69544L0 2.11819L2.19066 0ZM33.5189 21.5288H8.84049V8.54801H37.7142L33.5189 21.5288Z" fill="#3E5053"/>
<path d="M7.29146 41C9.00247 41 10.3895 39.6588 10.3895 38.0044C10.3895 36.35 9.00247 35.0089 7.29146 35.0089C5.58045 35.0089 4.19339 36.35 4.19339 38.0044C4.19339 39.6588 5.58045 41 7.29146 41Z" fill="#3E5053"/>
<path d="M30.0106 38.0044C30.0106 39.6588 31.3976 41 33.1087 41C34.8197 41 36.2067 39.6588 36.2067 38.0044C36.2067 36.35 34.8197 35.0089 33.1087 35.0089C31.3976 35.0089 30.0106 36.35 30.0106 38.0044Z" fill="#3E5053"/>
</svg>
