<svg width="41" height="41" viewBox="0 0 41 41" fill="none" xmlns="http://www.w3.org/2000/svg">
<path d="M20.5 0C9.13553 0.245002 0 9.32936 0 20.5C0 31.6706 9.13553 40.755 20.5 41V37.7735C16.0195 37.6589 11.9543 35.9137 8.90221 33.1225C11.081 30.6178 14.6752 27.8338 18.7271 27.0094C19.3091 26.891 19.9006 26.8127 20.5 26.7813V22.1128C16.7261 22.1128 13.6667 19.1214 13.6667 15.4313C13.6667 11.7413 16.7261 8.7499 20.5 8.7499V5.52438C14.9042 5.52438 10.3678 9.95988 10.3678 15.4313C10.3678 19.3692 12.7175 22.7704 16.1208 24.3677C12.1706 25.6725 8.86015 28.303 6.69585 30.6881C4.55979 27.8315 3.29885 24.3097 3.29885 20.5C3.29885 11.1108 10.9576 3.47072 20.5 3.22647V0Z" fill="#3E5053"/>
<path d="M20.5 0C31.8645 0.245002 41 9.32936 41 20.5C41 31.6706 31.8645 40.755 20.5 41V37.7735C24.9805 37.6589 29.0457 35.9137 32.0978 33.1225C29.919 30.6178 26.3248 27.8338 22.2729 27.0094C21.6909 26.891 21.0994 26.8127 20.5 26.7813V22.1128C24.2739 22.1128 27.3333 19.1214 27.3333 15.4313C27.3333 11.7413 24.2739 8.7499 20.5 8.7499V5.52438C26.0959 5.52438 30.6322 9.95988 30.6322 15.4313C30.6322 19.3692 28.2825 22.7704 24.8792 24.3677C28.8294 25.6725 32.1399 28.303 34.3041 30.6881C36.4402 27.8315 37.7011 24.3097 37.7011 20.5C37.7011 11.1108 30.0424 3.47072 20.5 3.22647V0Z" fill="#3E5053"/>
</svg>
