<svg width="237" height="41" viewBox="0 0 237 41" fill="none" xmlns="http://www.w3.org/2000/svg">
<path d="M20.5 0C9.13553 0.245002 0 9.32936 0 20.5C0 31.6706 9.13553 40.755 20.5 41V37.7735C16.0195 37.6589 11.9543 35.9137 8.90221 33.1225C11.081 30.6178 14.6752 27.8338 18.7271 27.0094C19.3091 26.891 19.9006 26.8127 20.5 26.7813V22.1128C16.7261 22.1128 13.6667 19.1214 13.6667 15.4313C13.6667 11.7413 16.7261 8.7499 20.5 8.7499V5.52438C14.9042 5.52438 10.3678 9.95988 10.3678 15.4313C10.3678 19.3692 12.7175 22.7704 16.1208 24.3677C12.1706 25.6725 8.86015 28.303 6.69585 30.6881C4.55979 27.8315 3.29885 24.3097 3.29885 20.5C3.29885 11.1108 10.9576 3.47072 20.5 3.22647V0Z" fill="#3E5053"/>
<path d="M20.5 0C31.8645 0.245002 41 9.32936 41 20.5C41 31.6706 31.8645 40.755 20.5 41V37.7735C24.9805 37.6589 29.0457 35.9137 32.0978 33.1225C29.919 30.6178 26.3248 27.8338 22.2729 27.0094C21.6909 26.891 21.0994 26.8127 20.5 26.7813V22.1128C24.2739 22.1128 27.3333 19.1214 27.3333 15.4313C27.3333 11.7413 24.2739 8.7499 20.5 8.7499V5.52438C26.0959 5.52438 30.6322 9.95988 30.6322 15.4313C30.6322 19.3692 28.2825 22.7704 24.8792 24.3677C28.8294 25.6725 32.1399 28.303 34.3041 30.6881C36.4402 27.8315 37.7011 24.3097 37.7011 20.5C37.7011 11.1108 30.0424 3.47072 20.5 3.22647V0Z" fill="#3E5053"/>
<path d="M57.7 28.2C57.4733 28.2 57.2467 28.18 57.02 28.14C56.7933 28.1 56.5467 28.0533 56.28 28L56.46 25.74C56.6467 25.7933 56.8467 25.82 57.06 25.82C57.62 25.82 58.0667 25.5933 58.4 25.14C58.7333 24.6733 58.9733 23.9933 59.12 23.1C59.2667 22.2067 59.3667 21.1067 59.42 19.8L59.62 14H69.92V28H67.36V15.56L67.96 16.2H61.3L61.86 15.54L61.72 19.7C61.68 21.0867 61.5867 22.3067 61.44 23.36C61.2933 24.4133 61.0667 25.3 60.76 26.02C60.4667 26.7267 60.0733 27.2667 59.58 27.64C59.0867 28.0133 58.46 28.2 57.7 28.2ZM73.5784 28V17.32H76.0784V24.36L81.9784 17.32H84.2584V28H81.7584V20.96L75.8784 28H73.5784ZM94.3614 23.78C93.8547 24.02 93.3147 24.22 92.7414 24.38C92.1814 24.5267 91.5881 24.6 90.9614 24.6C89.6147 24.6 88.5681 24.2867 87.8214 23.66C87.0747 23.0333 86.7014 22.06 86.7014 20.74V17.32H89.2014V20.58C89.2014 21.2867 89.4014 21.8 89.8014 22.12C90.2147 22.44 90.7814 22.6 91.5014 22.6C91.9814 22.6 92.4614 22.54 92.9414 22.42C93.4214 22.3 93.8947 22.1333 94.3614 21.92V23.78ZM94.1814 28V17.32H96.6814V28H94.1814ZM100.043 28V17.32H102.543V21.66H107.923V17.32H110.423V28H107.923V23.78H102.543V28H100.043ZM124.554 28V17.32H127.054V28H124.554ZM118.974 20.84C120.347 20.84 121.387 21.1467 122.094 21.76C122.814 22.3733 123.174 23.24 123.174 24.36C123.174 25.52 122.774 26.4267 121.974 27.08C121.187 27.72 120.067 28.0333 118.614 28.02L113.774 28V17.32H116.274V20.82L118.974 20.84ZM118.394 26.18C119.127 26.1933 119.687 26.04 120.074 25.72C120.46 25.4 120.654 24.9333 120.654 24.32C120.654 23.7067 120.46 23.2667 120.074 23C119.7 22.72 119.14 22.5733 118.394 22.56L116.274 22.54V26.16L118.394 26.18ZM130.414 28V17.32H132.914V24.36L138.814 17.32H141.094V28H138.594V20.96L132.714 28H130.414ZM135.594 16.06C134.528 16.06 133.708 15.8133 133.134 15.32C132.561 14.8133 132.268 14.08 132.254 13.12H133.914C133.928 13.6 134.074 13.98 134.354 14.26C134.648 14.54 135.054 14.68 135.574 14.68C136.081 14.68 136.481 14.54 136.774 14.26C137.081 13.98 137.241 13.6 137.254 13.12H138.954C138.941 14.08 138.641 14.8133 138.054 15.32C137.481 15.8133 136.661 16.06 135.594 16.06ZM157.645 28L153.785 22.88L155.825 21.62L160.585 28H157.645ZM149.985 28V17.32H152.485V28H149.985ZM151.745 23.72V21.64H155.365V23.72H151.745ZM156.065 22.96L153.725 22.68L157.645 17.32H160.325L156.065 22.96ZM168.633 28V25.84L168.493 25.38V21.6C168.493 20.8667 168.273 20.3 167.833 19.9C167.393 19.4867 166.726 19.28 165.833 19.28C165.233 19.28 164.639 19.3733 164.053 19.56C163.479 19.7467 162.993 20.0067 162.593 20.34L161.613 18.52C162.186 18.08 162.866 17.7533 163.653 17.54C164.453 17.3133 165.279 17.2 166.133 17.2C167.679 17.2 168.873 17.5733 169.713 18.32C170.566 19.0533 170.993 20.1933 170.993 21.74V28H168.633ZM165.273 28.14C164.473 28.14 163.773 28.0067 163.173 27.74C162.573 27.46 162.106 27.08 161.773 26.6C161.453 26.1067 161.293 25.5533 161.293 24.94C161.293 24.34 161.433 23.8 161.713 23.32C162.006 22.84 162.479 22.46 163.133 22.18C163.786 21.9 164.653 21.76 165.733 21.76H168.833V23.42H165.913C165.059 23.42 164.486 23.56 164.193 23.84C163.899 24.1067 163.753 24.44 163.753 24.84C163.753 25.2933 163.933 25.6533 164.293 25.92C164.653 26.1867 165.153 26.32 165.793 26.32C166.406 26.32 166.953 26.18 167.433 25.9C167.926 25.62 168.279 25.2067 168.493 24.66L168.913 26.16C168.673 26.7867 168.239 27.2733 167.613 27.62C166.999 27.9667 166.219 28.14 165.273 28.14ZM179.186 28.2C178.306 28.2 177.52 28.0667 176.826 27.8C176.133 27.5333 175.533 27.1267 175.026 26.58C174.533 26.02 174.153 25.3133 173.886 24.46C173.62 23.6067 173.486 22.5933 173.486 21.42C173.486 20.5667 173.56 19.7867 173.706 19.08C173.853 18.3733 174.073 17.74 174.366 17.18C174.66 16.6067 175.026 16.1 175.466 15.66C175.92 15.22 176.446 14.8533 177.046 14.56C177.646 14.2667 178.326 14.04 179.086 13.88L184.046 12.82L184.406 15.06L179.906 15.98C179.653 16.0333 179.346 16.1133 178.986 16.22C178.64 16.3133 178.28 16.46 177.906 16.66C177.546 16.8467 177.206 17.12 176.886 17.48C176.58 17.8267 176.326 18.28 176.126 18.84C175.94 19.3867 175.846 20.0733 175.846 20.9C175.846 21.1533 175.853 21.3467 175.866 21.48C175.893 21.6 175.913 21.7333 175.926 21.88C175.953 22.0133 175.966 22.2133 175.966 22.48L175.026 21.5C175.293 20.82 175.66 20.24 176.126 19.76C176.606 19.2667 177.16 18.8933 177.786 18.64C178.426 18.3733 179.12 18.24 179.866 18.24C180.866 18.24 181.753 18.4467 182.526 18.86C183.3 19.2733 183.906 19.8533 184.346 20.6C184.786 21.3467 185.006 22.1933 185.006 23.14C185.006 24.1267 184.766 25 184.286 25.76C183.806 26.52 183.126 27.12 182.246 27.56C181.38 27.9867 180.36 28.2 179.186 28.2ZM179.386 26.18C179.986 26.18 180.513 26.0533 180.966 25.8C181.433 25.5333 181.793 25.1733 182.046 24.72C182.313 24.2667 182.446 23.76 182.446 23.2C182.446 22.64 182.313 22.1533 182.046 21.74C181.793 21.3133 181.433 20.9733 180.966 20.72C180.513 20.4667 179.973 20.34 179.346 20.34C178.746 20.34 178.206 20.46 177.726 20.7C177.26 20.94 176.893 21.2733 176.626 21.7C176.373 22.1133 176.246 22.5933 176.246 23.14C176.246 23.7 176.38 24.2133 176.646 24.68C176.913 25.1467 177.28 25.5133 177.746 25.78C178.226 26.0467 178.773 26.18 179.386 26.18ZM187.426 28V17.32H189.926V24.36L195.826 17.32H198.106V28H195.606V20.96L189.726 28H187.426ZM201.469 28V17.32H203.969V21.66H209.349V17.32H211.849V28H209.349V23.78H203.969V28H201.469ZM220.18 28.14C218.993 28.14 217.953 27.9067 217.06 27.44C216.18 26.96 215.493 26.3067 215 25.48C214.52 24.6533 214.28 23.7133 214.28 22.66C214.28 21.5933 214.513 20.6533 214.98 19.84C215.46 19.0133 216.113 18.3667 216.94 17.9C217.78 17.4333 218.733 17.2 219.8 17.2C220.84 17.2 221.766 17.4267 222.58 17.88C223.393 18.3333 224.033 18.9733 224.5 19.8C224.966 20.6267 225.2 21.6 225.2 22.72C225.2 22.8267 225.193 22.9467 225.18 23.08C225.18 23.2133 225.173 23.34 225.16 23.46H216.26V21.8H223.84L222.86 22.32C222.873 21.7067 222.746 21.1667 222.48 20.7C222.213 20.2333 221.846 19.8667 221.38 19.6C220.926 19.3333 220.4 19.2 219.8 19.2C219.186 19.2 218.646 19.3333 218.18 19.6C217.726 19.8667 217.366 20.24 217.1 20.72C216.846 21.1867 216.72 21.74 216.72 22.38V22.78C216.72 23.42 216.866 23.9867 217.16 24.48C217.453 24.9733 217.866 25.3533 218.4 25.62C218.933 25.8867 219.546 26.02 220.24 26.02C220.84 26.02 221.38 25.9267 221.86 25.74C222.34 25.5533 222.766 25.26 223.14 24.86L224.48 26.4C224 26.96 223.393 27.3933 222.66 27.7C221.94 27.9933 221.113 28.14 220.18 28.14ZM229.744 28V18.84L230.324 19.44H225.984V17.32H235.984V19.44H231.664L232.244 18.84V28H229.744Z" fill="#3E5053"/>
</svg>
